<?xml version="1.0" encoding="utf-8"?>
<!-- Generator: Adobe Illustrator 25.2.3, SVG Export Plug-In . SVG Version: 6.00 Build 0)  -->
<svg version="1.1" id="Lager_1" xmlns="http://www.w3.org/2000/svg" xmlns:xlink="http://www.w3.org/1999/xlink" x="0px" y="0px"
	 viewBox="0 0 800 284" style="enable-background:new 0 0 800 284;" xml:space="preserve">
<style type="text/css">
	.st0{fill:#999999;}
	.st1{fill:none;stroke:#404040;stroke-width:4;stroke-linecap:round;stroke-linejoin:round;stroke-miterlimit:10;}
	.st2{fill:#B18BE8;stroke:#404040;stroke-width:4;stroke-linecap:round;stroke-linejoin:round;stroke-miterlimit:10;}
	.st3{fill:#404040;}
	.st4{fill:#FFFFFF;stroke:#404040;stroke-width:4;stroke-linecap:round;stroke-linejoin:round;stroke-miterlimit:10;}
	.st5{fill:#59AFE1;stroke:#404040;stroke-width:4;stroke-linejoin:round;stroke-miterlimit:10;}
	.st6{fill:#B3E3FF;stroke:#404040;stroke-width:4;stroke-linejoin:round;stroke-miterlimit:10;}
</style>
<path class="st0" d="M261.8,23.5c0-3.6,2.6-5.5,5.3-5.5c2.4,0,4.1,1.3,4.7,3.4l-1.4,0.5c-0.4-1.6-1.6-2.5-3.3-2.5
	c-1.9,0-3.8,1.4-3.8,4.2s1.8,4.2,3.8,4.2c1.8,0,3-1.1,3.4-2.5l1.3,0.5c-0.6,2-2.2,3.4-4.7,3.4C264.4,29.1,261.8,27.1,261.8,23.5z
	 M275.6,28.8h-1.4V18h1.4v4.5c0.5-0.8,1.4-1.1,2.2-1.1c1.7,0,2.6,1.2,2.6,2.9v4.6H279v-4.3c0-1-0.4-1.8-1.7-1.8
	c-1.1,0-1.6,0.8-1.7,1.9V28.8z M289.7,26.8c-0.4,1.3-1.6,2.3-3.2,2.3c-1.9,0-3.6-1.4-3.6-3.9c0-2.3,1.6-3.8,3.4-3.8
	c2.2,0,3.5,1.5,3.5,3.8v0.4h-5.4c0,1.3,1,2.2,2.2,2.2s1.8-0.6,2-1.5L289.7,26.8z M288.2,24.5c0-1-0.7-1.8-2-1.8
	c-1.2,0-1.9,0.9-2,1.8H288.2z M293.1,25.2c0,1.6,1,2.5,2.2,2.5c1.3,0,1.8-0.9,2-1.5l1.2,0.5c-0.3,1-1.4,2.2-3.3,2.2
	c-2.1,0-3.6-1.6-3.6-3.8s1.6-3.8,3.6-3.8c1.9,0,2.9,1.2,3.2,2.3l-1.3,0.5c-0.2-0.7-0.7-1.5-1.9-1.5
	C294.1,22.7,293.1,23.5,293.1,25.2L293.1,25.2z M304.3,24.7l3.1,4.2h-1.8l-2.4-3.2l-1,1v2.2H301V18h1.4v6.8l3.1-3.2h1.9
	C307.4,21.6,304.3,24.7,304.3,24.7z M310.3,17.9c0.6,0,1,0.4,1,1s-0.4,1-1,1s-1-0.5-1-1C309.3,18.3,309.7,17.9,310.3,17.9z
	 M309.6,28.8v-7.2h1.4v7.2C311,28.8,309.6,28.8,309.6,28.8z M315.5,28.8h-1.4v-7.2h1.4v1c0.5-0.9,1.4-1.2,2.2-1.2
	c1.7,0,2.6,1.2,2.6,2.9v4.6h-1.4v-4.3c0-1-0.4-1.8-1.7-1.8c-1.1,0-1.7,0.9-1.7,2C315.5,24.8,315.5,28.8,315.5,28.8z M324.1,28.9
	c0.1,1,0.9,1.8,2,1.8c1.5,0,2.2-0.8,2.2-2.3v-1c-0.3,0.7-1.1,1.2-2.2,1.2c-1.9,0-3.3-1.5-3.3-3.5c0-1.9,1.3-3.5,3.3-3.5
	c1.1,0,1.9,0.4,2.2,1.1v-1h1.4v6.7c0,1.8-0.9,3.6-3.6,3.6c-1.8,0-3.1-1.1-3.3-2.7C322.8,29.3,324.1,28.9,324.1,28.9z M328.4,25
	c0-1.4-0.8-2.3-2.1-2.3c-1.2,0-2.1,0.9-2.1,2.3s0.8,2.3,2.1,2.3C327.5,27.3,328.4,26.4,328.4,25z M344,25.2c0,2.2-1.5,3.8-3.7,3.8
	s-3.7-1.6-3.7-3.8s1.5-3.8,3.7-3.8S344,23,344,25.2z M342.6,25.2c0-1.7-1.1-2.6-2.2-2.6s-2.2,0.9-2.2,2.6s1,2.6,2.2,2.6
	S342.6,26.9,342.6,25.2z M349.1,29.1c-1.7,0-2.7-1.3-2.7-2.9v-4.5h1.4V26c0,1,0.4,1.9,1.6,1.9c1.1,0,1.7-0.8,1.7-1.8v-4.4h1.4v5.9
	c0,0.6,0,1.1,0.1,1.3h-1.4c0-0.2-0.1-0.6-0.1-0.9C350.8,28.7,349.9,29.1,349.1,29.1z M357.6,21.6h1.6v1.3h-1.6v3.8c0,0.7,0.3,1,1,1
	c0.2,0,0.4,0,0.6-0.1v1.2c-0.1,0-0.5,0.1-1,0.1c-1.2,0-2-0.8-2-2.1v-4h-1.4v-1.3h0.4c0.8,0,1.1-0.5,1.1-1.1v-1.2h1.3
	C357.6,19.2,357.6,21.6,357.6,21.6z M368,24.7l1.9-0.3c0.4-0.1,0.6-0.3,0.6-0.5c0-0.7-0.5-1.3-1.6-1.3c-1,0-1.5,0.6-1.6,1.5
	l-1.4-0.3c0.2-1.4,1.4-2.3,3-2.3c2.2,0,3,1.2,3,2.6v3.6c0,0.6,0.1,1,0.1,1.2h-1.4c0-0.2-0.1-0.5-0.1-1c-0.3,0.5-1,1.2-2.3,1.2
	c-1.5,0-2.4-1-2.4-2.2C365.8,25.6,366.8,24.9,368,24.7L368,24.7z M370.5,25.7v-0.3l-2.2,0.3c-0.6,0.1-1,0.4-1,1.1c0,0.5,0.4,1,1.2,1
	C369.6,27.9,370.5,27.3,370.5,25.7z M379.4,31.7V21.6h1.4v1.1c0.4-0.7,1.2-1.3,2.4-1.3c2.2,0,3.3,1.7,3.3,3.8s-1.2,3.8-3.4,3.8
	c-1.1,0-1.9-0.5-2.3-1.2v3.8h-1.4V31.7z M382.9,22.7c-1.3,0-2.1,1.1-2.1,2.5c0,1.5,0.9,2.5,2.1,2.5c1.3,0,2.1-1.1,2.1-2.5
	S384.2,22.7,382.9,22.7z M393,23h-0.6c-1.2,0-2,0.6-2,2.2v3.6H389v-7.2h1.4v1.3c0.5-1.1,1.4-1.4,2.2-1.4h0.5V23H393z M401.5,26.8
	c-0.4,1.3-1.6,2.3-3.2,2.3c-1.9,0-3.6-1.4-3.6-3.9c0-2.3,1.6-3.8,3.4-3.8c2.2,0,3.5,1.5,3.5,3.8v0.4h-5.4c0,1.3,1,2.2,2.2,2.2
	s1.8-0.6,2-1.5L401.5,26.8z M400.1,24.5c0-1-0.7-1.8-2-1.8c-1.2,0-1.9,0.9-2,1.8H400.1z M407.2,28.8h-1.4l-2.9-7.2h1.6l2.1,5.6
	l2.1-5.6h1.5L407.2,28.8L407.2,28.8z M412.9,17.9c0.6,0,1,0.4,1,1s-0.4,1-1,1s-1-0.5-1-1C411.9,18.3,412.4,17.9,412.9,17.9z
	 M412.2,28.8v-7.2h1.4v7.2H412.2z M423.5,25.2c0,2.2-1.5,3.8-3.7,3.8s-3.7-1.6-3.7-3.8s1.5-3.8,3.7-3.8S423.5,23,423.5,25.2z
	 M422.1,25.2c0-1.7-1.1-2.6-2.2-2.6s-2.2,0.9-2.2,2.6s1,2.6,2.2,2.6S422.1,26.9,422.1,25.2z M428.6,29.1c-1.7,0-2.7-1.3-2.7-2.9
	v-4.5h1.4V26c0,1,0.4,1.9,1.6,1.9c1.1,0,1.7-0.8,1.7-1.8v-4.4h1.4v5.9c0,0.6,0,1.1,0.1,1.3h-1.4c0-0.2-0.1-0.6-0.1-0.9
	C430.4,28.7,429.5,29.1,428.6,29.1z M435.9,26.5c0.1,0.8,0.7,1.3,1.7,1.3c0.8,0,1.2-0.4,1.2-1c0-0.4-0.3-0.8-0.9-0.9l-1.2-0.3
	c-1.1-0.2-1.8-1-1.8-2c0-1.2,1.2-2.3,2.6-2.3c2,0,2.6,1.3,2.7,1.9l-1.2,0.5c-0.1-0.4-0.4-1.2-1.5-1.2c-0.7,0-1.2,0.5-1.2,1
	c0,0.4,0.3,0.8,0.8,0.9l1.2,0.3c1.3,0.3,2,1.1,2,2.1s-0.9,2.2-2.6,2.2c-2,0-2.8-1.3-2.9-2.1L435.9,26.5L435.9,26.5z M448.1,25.2
	c0,1.6,1,2.5,2.2,2.5c1.3,0,1.8-0.9,2-1.5l1.2,0.5c-0.3,1-1.4,2.2-3.3,2.2c-2.1,0-3.6-1.6-3.6-3.8s1.6-3.8,3.6-3.8
	c1.9,0,2.9,1.2,3.2,2.3l-1.3,0.5c-0.2-0.7-0.7-1.5-1.9-1.5C449.2,22.7,448.1,23.5,448.1,25.2L448.1,25.2z M462.7,25.2
	c0,2.2-1.5,3.8-3.7,3.8s-3.7-1.6-3.7-3.8s1.5-3.8,3.7-3.8S462.7,23,462.7,25.2z M461.3,25.2c0-1.7-1.1-2.6-2.2-2.6s-2.2,0.9-2.2,2.6
	s1,2.6,2.2,2.6S461.3,26.9,461.3,25.2z M465.2,28.8v-7.2h1.3v1c0.5-0.8,1.4-1.2,2.2-1.2c0.9,0,1.8,0.4,2.2,1.4
	c0.6-1,1.5-1.4,2.4-1.4c1.3,0,2.5,0.9,2.5,2.7v4.7h-1.4v-4.5c0-0.9-0.5-1.6-1.5-1.6s-1.7,0.8-1.7,1.8v4.4h-1.4v-4.5
	c0-0.9-0.4-1.6-1.5-1.6c-1,0-1.7,0.8-1.7,1.8v4.3L465.2,28.8L465.2,28.8z M478.9,28.8v-7.2h1.3v1c0.4-0.8,1.4-1.2,2.2-1.2
	c0.9,0,1.8,0.4,2.2,1.4c0.6-1,1.5-1.4,2.4-1.4c1.3,0,2.5,0.9,2.5,2.7v4.7h-1.4v-4.5c0-0.9-0.5-1.6-1.5-1.6s-1.7,0.8-1.7,1.8v4.4
	h-1.4v-4.5c0-0.9-0.4-1.6-1.5-1.6c-1,0-1.7,0.8-1.7,1.8v4.3L478.9,28.8L478.9,28.8z M493.1,17.9c0.6,0,1,0.4,1,1s-0.4,1-1,1
	s-1-0.5-1-1C492.1,18.3,492.6,17.9,493.1,17.9z M492.5,28.8v-7.2h1.4v7.2H492.5z M498.9,21.6h1.6v1.3h-1.6v3.8c0,0.7,0.3,1,1,1
	c0.2,0,0.4,0,0.6-0.1v1.2c-0.1,0-0.5,0.1-1,0.1c-1.2,0-2-0.8-2-2.1v-4h-1.4v-1.3h0.4c0.8,0,1.1-0.5,1.1-1.1v-1.2h1.3
	C498.9,19.2,498.9,21.6,498.9,21.6z"/>
<path class="st1" d="M313,195.1v-23.5 M323.9,186.4L313,197.2l-10.8-10.8 M532.9,195.1v-23.5 M543.7,186.4l-10.8,10.8L522,186.4"/>
<path class="st2" d="M265,100.7h96v50h-96V100.7z"/>
<path class="st3" d="M287.8,126.6l1.9-0.3c0.4-0.1,0.6-0.3,0.6-0.5c0-0.7-0.5-1.3-1.6-1.3c-1,0-1.5,0.6-1.6,1.5l-1.4-0.3
	c0.2-1.4,1.4-2.3,3-2.3c2.2,0,3,1.2,3,2.6v3.6c0,0.6,0.1,1,0.1,1.2h-1.4c0-0.2-0.1-0.5-0.1-1c-0.3,0.5-1,1.2-2.3,1.2
	c-1.5,0-2.4-1-2.4-2.2C285.6,127.5,286.5,126.7,287.8,126.6L287.8,126.6z M290.3,127.6v-0.3l-2.2,0.3c-0.6,0.1-1.1,0.4-1.1,1.1
	c0,0.5,0.4,1,1.2,1C289.3,129.7,290.3,129.2,290.3,127.6z M296.2,130.7v-6.9h-2.4v-1c1.3,0,2.3-0.8,2.5-1.8h1.3v9.7H296.2z
	 M307,128.6c-0.4,1.3-1.6,2.3-3.2,2.3c-1.9,0-3.6-1.4-3.6-3.9c0-2.3,1.6-3.8,3.4-3.8c2.2,0,3.5,1.5,3.5,3.8v0.4h-5.4
	c0,1.3,1,2.2,2.2,2.2s1.8-0.6,2-1.5L307,128.6z M305.5,126.3c0-1-0.7-1.8-2-1.8c-1.2,0-1.9,0.9-2,1.8H305.5z M309,128.1
	c0-1.2,0.8-2.1,1.8-2.4c-0.9-0.3-1.6-1.2-1.6-2.3c0-1.6,1.4-2.7,3.3-2.7s3.3,1.1,3.3,2.7c0,1-0.7,1.9-1.6,2.3c1,0.3,1.8,1.2,1.8,2.4
	c0,1.6-1.3,2.8-3.5,2.8S309,129.7,309,128.1L309,128.1z M314.6,128c0-0.9-0.8-1.7-2-1.7c-1.3,0-2,0.7-2,1.7c0,0.9,0.7,1.6,2,1.6
	S314.6,128.9,314.6,128z M314.4,123.5c0-0.9-0.7-1.6-1.8-1.6s-1.8,0.7-1.8,1.6s0.8,1.6,1.8,1.6S314.4,124.5,314.4,123.5z
	 M320.6,124.7v5.9h-1.5v-5.9h-1.3v-1.3h1.3v-1.2c0-1.6,1.1-2.5,2.4-2.5c0.5,0,0.8,0.1,0.8,0.2v1.3c-0.1,0-0.3-0.1-0.6-0.1
	c-0.5,0-1.1,0.2-1.1,1.2v1.1h1.7v1.3H320.6L320.6,124.7z M324.6,130.7v-10.9h1.4v4.7c0.3-0.6,1.2-1.2,2.4-1.2c2.2,0,3.3,1.7,3.3,3.8
	c0,2.1-1.2,3.8-3.4,3.8c-1.1,0-1.9-0.5-2.3-1.2v1H324.6z M328.1,124.5c-1.2,0-2.1,1-2.1,2.5c0,1.6,0.9,2.6,2.1,2.6
	c1.3,0,2.1-1,2.1-2.6C330.3,125.5,329.4,124.5,328.1,124.5z M335,127.6c0.1,1.2,1,2,2.2,2s2.1-0.8,2.1-2c0-1.3-1-2-2.1-2
	c-0.7,0-1.4,0.3-1.8,0.7l-1.4-0.6l1.3-4.8h5.1v1.4h-4.2l-0.7,2.8c0.4-0.5,1.2-0.7,2-0.7c1.9,0,3.3,1.2,3.3,3.2
	c0,1.8-1.4,3.3-3.6,3.3c-2.1,0-3.5-1.4-3.6-2.9L335,127.6L335,127.6z"/>
<path class="st4" d="M224.1,238.2h287.8"/>
<circle class="st4" cx="203.1" cy="238.2" r="21"/>
<circle class="st5" cx="313" cy="238.2" r="21"/>
<circle class="st4" cx="423" cy="238.2" r="21"/>
<circle class="st4" cx="532.9" cy="238.2" r="21"/>
<g>
	<path class="st6" d="M484.8,100.7h96v50h-96V100.7z"/>
	<g>
		<path d="M518.4,131.9v-10h2l2.4,7.1c0.2,0.7,0.4,1.2,0.5,1.5c0.1-0.4,0.3-0.9,0.5-1.6l2.4-7h1.8v10h-1.3v-8.4l-2.9,8.4h-1.2
			l-2.9-8.5v8.5H518.4z"/>
		<path d="M535.4,131c-0.5,0.4-0.9,0.7-1.3,0.8c-0.4,0.2-0.9,0.2-1.4,0.2c-0.8,0-1.4-0.2-1.8-0.6c-0.4-0.4-0.6-0.9-0.6-1.5
			c0-0.4,0.1-0.7,0.2-1c0.2-0.3,0.4-0.5,0.6-0.7c0.3-0.2,0.6-0.3,0.9-0.4c0.2-0.1,0.6-0.1,1.1-0.2c1-0.1,1.7-0.3,2.2-0.4
			c0-0.2,0-0.3,0-0.3c0-0.5-0.1-0.9-0.3-1.1c-0.3-0.3-0.8-0.4-1.4-0.4c-0.6,0-1,0.1-1.3,0.3c-0.3,0.2-0.5,0.6-0.6,1.1l-1.2-0.2
			c0.1-0.5,0.3-0.9,0.5-1.2c0.3-0.3,0.6-0.6,1.1-0.7c0.5-0.2,1-0.3,1.6-0.3s1.1,0.1,1.5,0.2s0.7,0.3,0.9,0.6
			c0.2,0.2,0.3,0.5,0.4,0.8c0,0.2,0.1,0.6,0.1,1.1v1.6c0,1.1,0,1.9,0.1,2.2c0.1,0.3,0.2,0.6,0.3,0.9h-1.3
			C535.5,131.7,535.4,131.4,535.4,131z M535.3,128.3c-0.4,0.2-1.1,0.3-2,0.5c-0.5,0.1-0.9,0.2-1.1,0.2c-0.2,0-0.4,0.2-0.5,0.4
			c-0.1,0.2-0.2,0.4-0.2,0.6c0,0.3,0.1,0.6,0.4,0.8c0.2,0.2,0.6,0.3,1.1,0.3s0.9-0.1,1.3-0.3c0.4-0.2,0.6-0.5,0.8-0.9
			c0.1-0.3,0.2-0.7,0.2-1.2L535.3,128.3L535.3,128.3z"/>
		<path d="M539.1,123.3v-1.4h1.2v1.4H539.1z M539.1,131.9v-7.3h1.2v7.3H539.1z"/>
		<path d="M542.9,131.9v-7.3h1.1v1c0.5-0.8,1.3-1.2,2.3-1.2c0.4,0,0.8,0.1,1.2,0.2c0.4,0.2,0.6,0.4,0.8,0.6s0.3,0.6,0.4,0.9
			c0,0.2,0.1,0.6,0.1,1.2v4.5h-1.2v-4.4c0-0.5,0-0.9-0.1-1.1s-0.3-0.4-0.5-0.6c-0.2-0.1-0.5-0.2-0.9-0.2c-0.5,0-1,0.2-1.4,0.5
			s-0.6,1-0.6,1.9v4H542.9z"/>
	</g>
</g>
</svg>
